# xmcd
#
# Track frame offsets:
#	150
#	10220
#	21716
#	32691
#	43426
#	53852
#	66407
#	78853
#	91168
#	101950
#	113079
#	123752
#	132592
#	144046
#	156856
#	168362
#	179872
#	190557
#	201564
#	210694
#	223088
#	236771
#	249594
#	261290
#
# Disc length: 3640 seconds
#
# Revision: 1
# Processed by: cddbd v1.5.2PL0 Copyright (c) Steve Scherf et al.
# Submitted via: audiograbber 1.83.01
#
DISCID=6b0e3618
DTITLE=Various Artist - Talking off the wall - R&B Music 1955-61
DYEAR=1994
DGENRE=R&B
TTITLE0=Cousin Leroy - Goin' back home 
TTITLE1=Cousin Leroy - Catfish
TTITLE2=Cousin Leroy - Will a matchbox hold my clothes
TTITLE3=Cousin Leroy - I'm lonesome
TTITLE4=Cousin Leroy - Highway 41
TTITLE5=Cousin Leroy - Waitin' at the station
TTITLE6=Cousin Leroy - Crossroads
TTITLE7=Cousin Leroy - Up the river
TTITLE8=Ernest Brooks - Talking off the wall
TTITLE9=Joe Benson - Somebody told me
TTITLE10=Joe Benson - Rock and roll jungle
TTITLE11=Crawford Brothers - Midnight mover groover
TTITLE12=Crawford Brothers - Midnight happenings
TTITLE13=Crawford Brothers - I ain't guilty
TTITLE14=Crawford Brothers - I feels good
TTITLE15=Willard Harris - Straighten up baby
TTITLE16=Big Connie - Mumbles Blues
TTITLE17=Big Connie - Wait till next week baby
TTITLE18="Happy Jack" Davis - Steady Roll
TTITLE19="Happy Jack" Davis - Ten cents stew
TTITLE20=Judge Davis - Can't sleep at night
TTITLE21=Judge Davis - Sawmill section 
TTITLE22="Lucky" Leon Davis - Minor's barbecue
TTITLE23="Lucky" Leon Davis - Big bill baby
EXTD=
EXTT0=
EXTT1=
EXTT2=
EXTT3=
EXTT4=
EXTT5=
EXTT6=
EXTT7=
EXTT8=
EXTT9=
EXTT10=
EXTT11=
EXTT12=
EXTT13=
EXTT14=
EXTT15=
EXTT16=
EXTT17=
EXTT18=
EXTT19=
EXTT20=
EXTT21=
EXTT22=
EXTT23=
PLAYORDER=
